<svg width="24px" height="24px" viewBox="0 0 24 24" fill="none" xmlns="http://www.w3.org/2000/svg">
<path d="M4.99989 10.2632C5.04989 9.01318 5.49989 7.84318 6.25989 6.91318C7.01989 5.98318 8.04989 5.35318 9.16989 5.11318C10.2999 4.87318 11.4799 5.03318 12.5199 5.56318C13.5599 6.09318 14.4099 6.96318 14.9099 8.01318" stroke="#2563EB" stroke-width="1.5" stroke-linecap="round" stroke-linejoin="round"/>
<path d="M18.9999 10.2632C18.9499 9.01318 18.4999 7.84318 17.7399 6.91318C16.9799 5.98318 15.9499 5.35318 14.8299 5.11318C13.9539 4.93379 13.0432 4.94231 12.1799 5.13318" stroke="#2563EB" stroke-width="1.5" stroke-linecap="round" stroke-linejoin="round"/>
<path d="M2 22H22" stroke="#2563EB" stroke-width="1.5" stroke-linecap="round" stroke-linejoin="round"/>
<path d="M19 11.1V22H5V11.1" stroke="#2563EB" stroke-width="1.5" stroke-linecap="round" stroke-linejoin="round"/>
<path d="M19 8.1C19.7 8.1 20.4 7.8 20.9 7.3C21.4 6.8 21.7 6.1 21.7 5.4C21.7 4.7 21.4 4 20.9 3.5C20.4 3 19.7 2.7 19 2.7C18.3 2.7 17.6 3 17.1 3.5C16.6 4 16.3 4.7 16.3 5.4C16.3 6.1 16.6 6.8 17.1 7.3C17.6 7.8 18.3 8.1 19 8.1Z" stroke="#2563EB" stroke-width="1.5" stroke-linecap="round" stroke-linejoin="round"/>
<path d="M5 8.1C5.7 8.1 6.4 7.8 6.9 7.3C7.4 6.8 7.7 6.1 7.7 5.4C7.7 4.7 7.4 4 6.9 3.5C6.4 3 5.7 2.7 5 2.7C4.3 2.7 3.6 3 3.1 3.5C2.6 4 2.3 4.7 2.3 5.4C2.3 6.1 2.6 6.8 3.1 7.3C3.6 7.8 4.3 8.1 5 8.1Z" stroke="#2563EB" stroke-width="1.5" stroke-linecap="round" stroke-linejoin="round"/>
<path d="M12 15.5C13.3807 15.5 14.5 14.3807 14.5 13C14.5 11.6193 13.3807 10.5 12 10.5C10.6193 10.5 9.5 11.6193 9.5 13C9.5 14.3807 10.6193 15.5 12 15.5Z" stroke="#2563EB" stroke-width="1.5" stroke-linecap="round" stroke-linejoin="round"/>
</svg>